<svg xmlns="http://www.w3.org/2000/svg" width="24" height="24" viewBox="0 0 24 24"><g transform="translate(-800 -440)"><path d="M5.411,0H18.589A5.41,5.41,0,0,1,24,5.411V18.589A5.41,5.41,0,0,1,18.589,24H5.411A5.411,5.411,0,0,1,0,18.589V5.411A5.41,5.41,0,0,1,5.411,0Z" transform="translate(800 440)" fill="#06c755"/><g transform="translate(803.996 444.376)"><g transform="translate(0 0)"><path d="M869.282,504.838c0-3.58-3.589-6.493-8-6.493s-8,2.913-8,6.493c0,3.21,2.847,5.9,6.692,6.406.261.056.615.172.705.395a1.644,1.644,0,0,1,.026.723s-.094.565-.114.685c-.035.2-.161.791.693.431a25.838,25.838,0,0,0,6.287-4.646h0A5.778,5.778,0,0,0,869.282,504.838Z" transform="translate(-853.279 -498.345)" fill="#fff"/><g transform="translate(2.625 4.763)"><path d="M1001.553,565.653H999.3a.153.153,0,0,1-.153-.153v0h0v-3.486h0v0a.153.153,0,0,1,.153-.153h2.248a.153.153,0,0,1,.153.153v.567a.153.153,0,0,1-.153.153h-1.528v.589h1.528a.153.153,0,0,1,.153.153v.567a.153.153,0,0,1-.153.153h-1.528v.589h1.528a.153.153,0,0,1,.153.153v.568A.153.153,0,0,1,1001.553,565.653Z" transform="translate(-990.836 -561.855)" fill="#06c755"/><path d="M890.679,565.653a.153.153,0,0,0,.153-.153v-.568a.153.153,0,0,0-.153-.153h-1.528v-2.772a.153.153,0,0,0-.153-.153h-.567a.153.153,0,0,0-.153.153V565.5h0v0a.153.153,0,0,0,.153.153h2.248Z" transform="translate(-888.278 -561.855)" fill="#06c755"/><rect width="0.873" height="3.798" rx="0.437" transform="translate(3.034)" fill="#06c755"/><path d="M950.811,561.855h-.567a.153.153,0,0,0-.153.153v2.074l-1.6-2.158-.012-.016h0l-.009-.01,0,0-.008-.007,0,0-.008-.006,0,0-.008,0,0,0-.009,0-.005,0-.009,0H948.4l-.009,0H947.8a.153.153,0,0,0-.153.153V565.5a.153.153,0,0,0,.153.153h.567a.153.153,0,0,0,.153-.153v-2.074l1.6,2.16a.157.157,0,0,0,.039.038h0l.01.006,0,0,.007,0,.008,0,0,0,.011,0h0a.157.157,0,0,0,.04.005h.564a.153.153,0,0,0,.153-.153v-3.492A.153.153,0,0,0,950.811,561.855Z" transform="translate(-943.193 -561.855)" fill="#06c755"/></g></g></g></g></svg>