<svg xmlns="http://www.w3.org/2000/svg" width="293.548" height="35.808" viewBox="0 0 293.548 35.808"><g transform="translate(-3.226 -32.096)"><path d="M18.235,58.433l15.4,4.74V37.815l-15.4-4.74Z" fill="#bccfeb"/><path d="M18.235,45.754l15.4,4.74L18.631,54.247l-15.4-4.741Z" fill="#6b9ed4"/><path d="M3.226,62.185l15.4,4.74V41.567l-15.4-4.74Z" fill="#3488c9"/><path d="M215.061,43.667h-3.8V66.3h3.8V55.6a7.882,7.882,0,0,1,7.46-7.86V43.929a11.551,11.551,0,0,0-6.79,2.5l-.67.527Z" fill="#3c4242"/><path d="M193.372,32.137H178.806V66.3h3.8V55.571h10.765a11.717,11.717,0,0,0,0-23.434Zm0,19.634H182.607V35.937h10.765a7.917,7.917,0,0,1,0,15.834Z" fill="#3c4242"/><path d="M239.413,43.923a11.672,11.672,0,1,0,9.234,18.812l-3.087-2.22a7.876,7.876,0,0,1-13.633-2.476l-.176-.543h19.335V55.6A11.685,11.685,0,0,0,239.413,43.923ZM231.751,53.7l.176-.543a7.874,7.874,0,0,1,14.97,0l.177.543Z" fill="#3c4242"/><path d="M269.7,54.5,264.065,52.1c-1.461-.62-2.406-1.538-2.406-2.337,0-1.793,1.956-3.309,4.271-3.309a4.264,4.264,0,0,1,4.075,2.883l3.729-.785a8.071,8.071,0,0,0-7.8-5.9c-4.451,0-8.071,3.189-8.071,7.109,0,2.4,1.762,4.581,4.716,5.834L268.21,58c1.759.749,1.985,1.582,1.985,2.224,0,1.307-1.792,3.245-4.265,3.245a4.215,4.215,0,0,1-4.249-3.684h-3.812a8.009,8.009,0,0,0,8.061,7.485c4.3,0,8.064-3.293,8.064-7.046C273.994,58.768,273.436,56.093,269.7,54.5Z" fill="#3c4242"/><path d="M292.481,55.138l-5.637-2.406c-1.46-.619-2.4-1.537-2.4-2.337,0-1.793,1.956-3.308,4.269-3.308a4.27,4.27,0,0,1,4.077,2.882l3.731-.785a8.075,8.075,0,0,0-7.808-5.9c-4.449,0-8.07,3.189-8.07,7.109,0,2.4,1.763,4.581,4.716,5.834l5.635,2.4c1.762.749,1.988,1.582,1.988,2.224,0,1.307-1.793,3.245-4.269,3.245a4.213,4.213,0,0,1-4.247-3.684h-3.812a8.007,8.007,0,0,0,8.059,7.485c4.3,0,8.066-3.293,8.066-7.046C296.774,59.4,296.216,56.729,292.481,55.138Z" fill="#3c4242"/><path d="M54.707,32.1H50.9V66.3h3.8V51.1H72.6V66.3h3.8V32.1H72.6V47.3H54.707Z" fill="#3c4242"/><path d="M95.634,43.923a11.672,11.672,0,1,0,0,23.345,11.55,11.55,0,0,0,7.2-2.506l.669-.527V66.3h3.8V55.6A11.686,11.686,0,0,0,95.634,43.923Zm0,19.544a7.872,7.872,0,1,1,7.873-7.872A7.88,7.88,0,0,1,95.634,63.467Z" fill="#3c4242"/><rect width="3.801" height="22.634" transform="translate(116.25 43.667)" fill="#3c4242"/><path d="M134.319,43.667h-3.8V66.3h3.8V55.6a7.882,7.882,0,0,1,7.458-7.86V43.929a11.52,11.52,0,0,0-6.787,2.5l-.671.528Z" fill="#3c4242"/><path d="M160.584,54.5,154.948,52.1c-1.461-.62-2.406-1.538-2.406-2.337,0-1.793,1.956-3.309,4.271-3.309a4.268,4.268,0,0,1,4.077,2.883l3.73-.785a8.076,8.076,0,0,0-7.807-5.9c-4.45,0-8.069,3.189-8.069,7.109,0,2.4,1.762,4.581,4.715,5.834L159.093,58c1.76.749,1.986,1.582,1.986,2.224,0,1.307-1.791,3.245-4.266,3.245a4.215,4.215,0,0,1-4.249-3.684h-3.81a8.008,8.008,0,0,0,8.059,7.485c4.3,0,8.066-3.293,8.066-7.046C164.879,58.768,164.321,56.093,160.584,54.5Z" fill="#3c4242"/><rect width="3.931" height="3.661" transform="translate(116.25 34.688)" fill="#3c4242"/></g></svg>